<svg width="2296" height="2136" viewBox="0 0 2296 2136" fill="#FFFFFF" xmlns="http://www.w3.org/2000/svg">
<path d="M1437.75 1011.75L532.5 852V2032.39C532.5 2086.3 576.2 2130 630.107 2130H2192.14C2246.05 2130 2289.75 2086.3 2289.75 2032.39V1597.5L1437.75 1011.75Z" fill="#235525"/>
<path d="M1437.75 0H630.107C576.2 0 532.5 43.7 532.5 97.607V532.5L1437.75 1065L1917 1224.75L2289.75 1065V532.5L1437.75 0Z" fill="#4BA650"/>
<path d="M532.5 532.5H1437.75V1065H532.5V532.5Z" fill="#31813A"/>
<path d="M2192.14 0H1437.75V532.5H2289.75V97.607C2289.75 43.7 2246.05 0 2192.14 0Z" fill="#6AC96F"/>
<path d="M1437.75 1065H2289.75V1597.5H1437.75V1065Z" fill="#31813A"/>
<mask id="mask0_1_53" style="mask-type:alpha" maskUnits="userSpaceOnUse" x="532" y="0" width="1758" height="2130">
<path d="M1437.75 1011.75L532.5 852V2032.39C532.5 2086.3 576.2 2130 630.107 2130H2192.14C2246.05 2130 2289.75 2086.3 2289.75 2032.39V1597.5L1437.75 1011.75Z" fill="#2B652D"/>
<path d="M1437.75 0H630.107C576.2 0 532.5 43.7 532.5 97.607V532.5L1437.75 1065L1917 1224.75L2289.75 1065V532.5L1437.75 0Z" fill="#4DA953"/>
<path d="M532.5 532.5H1437.75V1065H532.5V532.5Z" fill="#4DA953"/>
<path d="M2192.14 0H1437.75V532.5H2289.75V97.607C2289.75 43.7 2246.05 0 2192.14 0Z" fill="#C5FD52"/>
<path d="M1437.75 1065H2289.75V1597.5H1437.75V1065Z" fill="#4DA953"/>
</mask>
<g mask="url(#mask0_1_53)">
<g filter="url(#filter0_d_1_53)">
<path fill-rule="evenodd" clip-rule="evenodd" d="M1167.42 800.195C1167.52 800.851 1167.62 801.508 1167.73 802.168L1167.64 802.225C1168.95 810.76 1170.48 819.352 1171.42 828C1171.47 829.279 1171.5 830.565 1171.5 831.857V1808.14C1171.5 1862.05 1127.8 1905.75 1073.89 1905.75H97.6069C43.6999 1905.75 -0.00012207 1862.05 -0.00012207 1808.14V929.292C-0.00012207 928 0.0748091 906.5 0.074688 846L-0.00012207 828C0.939308 819.352 2.05261 810.76 3.37477 802.225L3.48207 801.529C3.81196 799.387 4.14464 797.227 4.50561 795.09C6.95857 780.362 9.93344 765.862 13.4302 751.533C19.5713 726.5 27.2955 702.068 36.5159 678.407C44.3097 658.368 53.182 638.875 63.0287 619.979C75.6588 595.688 89.9588 572.426 105.755 550.276C125.135 523.132 146.725 497.7 170.298 474.266C182.128 462.478 194.479 451.205 207.301 440.443C228.699 422.49 251.367 406.079 275.201 391.264C275.157 391.179 275.105 391.093 275.053 391.008C275.001 390.922 274.949 390.836 274.905 390.751C269 380.548 263.09 370.352 257.18 360.156C251.269 349.958 245.357 339.76 239.45 329.554L237.707 326.548C226.737 307.628 215.765 288.707 204.778 269.785C196.515 255.485 188.217 241.158 179.901 226.858C177.935 223.461 176.404 219.95 175.221 216.353C172.003 206.334 171.863 195.802 174.456 186.012C175.082 183.586 175.917 181.217 176.891 178.905C177.848 176.593 178.996 174.337 180.284 172.168C184.737 164.748 191 158.296 198.933 153.587C205.961 149.392 213.807 146.908 221.845 146.223C225.22 145.937 228.612 145.967 231.97 146.31C234.77 146.595 237.537 147.108 240.285 147.821C250.062 150.418 259.144 155.784 266.207 163.549C268.747 166.346 271.025 169.428 273.009 172.826C281.272 187.125 289.571 201.453 297.886 215.753C309.438 235.677 320.989 255.6 332.541 275.522C338.447 285.726 344.362 295.923 350.277 306.12C356.192 316.317 362.107 326.514 368.013 336.719C368.722 337.968 369.45 339.218 370.179 340.467C370.665 341.302 371.151 342.136 371.632 342.97C378.312 340.344 385.044 337.832 391.846 335.463C450.717 314.969 513.816 303.551 579.489 302.895C581.525 302.868 583.525 302.868 585.543 302.868C659.41 302.868 730.076 316.453 795.21 341.285C796.77 341.881 798.316 342.499 799.873 343.12L800.569 343.398C801.442 341.868 802.323 340.351 803.202 338.839C803.618 338.122 804.034 337.406 804.448 336.691C810.354 326.487 816.268 316.291 822.183 306.095C828.098 295.897 834.013 285.699 839.92 275.494L874.575 215.725L874.621 215.646C882.887 201.372 891.169 187.069 899.452 172.796C901.418 169.401 903.715 166.317 906.255 163.52C913.318 155.756 922.399 150.39 932.176 147.793C934.924 147.08 937.691 146.565 940.474 146.28C943.849 145.937 947.242 145.91 950.617 146.195C958.654 146.908 966.5 149.392 973.511 153.558C981.444 158.268 987.759 164.72 992.178 172.14C993.465 174.309 994.596 176.564 995.57 178.877C996.544 181.189 997.345 183.558 998.006 185.983C1000.6 195.774 1000.46 206.306 997.223 216.325C996.058 219.921 994.509 223.431 992.543 226.828C984.28 241.128 975.981 255.457 967.665 269.757C957.764 286.833 947.862 303.911 937.961 320.988L933.011 329.526C927.104 339.73 921.19 349.927 915.275 360.124C909.36 370.321 903.445 380.518 897.539 390.721C897.426 390.907 897.321 391.1 897.217 391.293C897.112 391.485 897.008 391.678 896.895 391.864C922.677 407.963 947.154 425.973 970.066 445.752C980.643 454.858 990.89 464.362 1000.79 474.211C1024.38 497.644 1045.99 523.075 1065.33 550.219C1081.11 572.369 1095.39 595.66 1108.06 619.922C1117.9 638.817 1126.78 658.311 1134.57 678.349C1143.79 702.011 1151.52 726.443 1157.66 751.475C1161.15 765.805 1164.16 780.332 1166.58 795.032C1166.87 796.75 1167.14 798.467 1167.42 800.195Z" fill="url(#paint0_linear_1_53)"/>
</g>
</g>
<path fill-rule="evenodd" clip-rule="evenodd" d="M1167.42 800.195C1167.52 800.851 1167.62 801.508 1167.73 802.168L1167.64 802.225C1168.95 810.76 1170.48 829.352 1171.42 838C1171.47 839.279 1171.5 840.565 1171.5 841.857V1808.14C1171.5 1862.05 1127.8 1905.75 1073.89 1905.75H97.6069C43.6999 1905.75 -0.00012207 1862.05 -0.00012207 1808.14V939.292C-0.00012207 938 0.0748091 916.5 0.074688 856L-0.00012207 838C0.939308 829.352 2.05261 810.76 3.37477 802.225L3.48207 801.529C3.81196 799.387 4.14464 797.227 4.50561 795.09C6.95857 780.362 9.93344 765.862 13.4302 751.533C19.5713 726.5 27.2955 702.068 36.5159 678.407C44.3097 658.368 53.182 638.875 63.0287 619.979C75.6588 595.688 89.9588 572.426 105.755 550.276C125.135 523.132 146.725 497.7 170.298 474.266C182.128 462.478 194.479 451.205 207.301 440.443C228.699 422.49 251.367 406.079 275.201 391.264C275.157 391.179 275.105 391.093 275.053 391.008C275.001 390.922 274.949 390.836 274.905 390.751C269 380.548 263.09 370.352 257.18 360.156C251.269 349.958 245.357 339.76 239.45 329.554L237.707 326.548C226.737 307.628 215.765 288.707 204.778 269.785C196.515 255.485 188.217 241.158 179.901 226.858C177.935 223.461 176.404 219.95 175.221 216.353C172.003 206.334 171.863 195.802 174.456 186.012C175.082 183.586 175.917 181.217 176.891 178.905C177.848 176.593 178.996 174.337 180.284 172.168C184.737 164.748 191 158.296 198.933 153.587C205.961 149.392 213.807 146.908 221.845 146.223C225.22 145.937 228.612 145.967 231.97 146.31C234.77 146.595 237.537 147.108 240.285 147.821C250.062 150.418 259.144 155.784 266.207 163.549C268.747 166.346 271.025 169.428 273.009 172.826C281.272 187.125 289.571 201.453 297.886 215.753C309.438 235.677 320.989 255.6 332.541 275.522C338.447 285.726 344.362 295.923 350.277 306.12C356.192 316.317 362.107 326.514 368.013 336.719C368.722 337.968 369.45 339.218 370.179 340.467C370.665 341.302 371.151 342.136 371.632 342.97C378.312 340.344 385.044 337.832 391.846 335.463C450.717 314.969 513.816 303.551 579.489 302.895C581.525 302.868 583.525 302.868 585.543 302.868C659.41 302.868 730.076 316.453 795.21 341.285C796.77 341.881 798.316 342.499 799.873 343.12L800.569 343.398C801.442 341.868 802.323 340.351 803.202 338.839C803.618 338.122 804.034 337.406 804.448 336.691C810.354 326.487 816.268 316.291 822.183 306.095C828.098 295.897 834.013 285.699 839.92 275.494L874.575 215.725L874.621 215.646C882.887 201.372 891.169 187.069 899.452 172.796C901.418 169.401 903.715 166.317 906.255 163.52C913.318 155.756 922.399 150.39 932.176 147.793C934.924 147.08 937.691 146.565 940.474 146.28C943.849 145.937 947.242 145.91 950.617 146.195C958.654 146.908 966.5 149.392 973.511 153.558C981.444 158.268 987.759 164.72 992.178 172.14C993.465 174.309 994.596 176.564 995.57 178.877C996.544 181.189 997.345 183.558 998.006 185.983C1000.6 195.774 1000.46 206.306 997.223 216.325C996.058 219.921 994.509 223.431 992.543 226.828C984.28 241.128 975.981 255.457 967.665 269.757C957.764 286.833 947.862 303.911 937.961 320.988L933.011 329.526C927.104 339.73 921.19 349.927 915.275 360.124C909.36 370.321 903.445 380.518 897.539 390.721C897.426 390.907 897.321 391.1 897.217 391.293C897.112 391.485 897.008 391.678 896.895 391.864C922.677 407.963 947.154 425.973 970.066 445.752C980.643 454.858 990.89 464.362 1000.79 474.211C1024.38 497.644 1045.99 523.075 1065.33 550.219C1081.11 572.369 1095.39 595.66 1108.06 619.922C1117.9 638.817 1126.78 658.311 1134.57 678.349C1143.79 702.011 1151.52 726.443 1157.66 751.475C1161.15 765.805 1164.16 780.332 1166.58 795.032C1166.87 796.75 1167.14 798.467 1167.42 800.195Z" fill="url(#paint1_linear_1_53)"/>
<path d="M483.598 1404.47L584.07 1116.28H588.93L689.402 1404.47H483.598ZM294 1648H399.333L451.998 1497.01H721.002L773.667 1648H879L644.838 1014H528.162L294 1648Z" fill="white"/>
<path d="M889.887 665.856C913.371 650.258 916.788 614.171 897.505 585.257C878.24 556.34 843.58 545.546 820.114 561.143C796.629 576.743 793.212 612.828 812.494 641.743C831.76 670.659 866.42 681.455 889.887 665.856Z" fill="#202124"/>
<path d="M359.506 641.744C378.788 612.828 375.371 576.742 351.887 561.144C328.404 545.545 293.763 556.341 274.481 585.256C255.217 614.172 258.634 650.258 282.1 665.856C305.583 681.455 340.242 670.659 359.506 641.744Z" fill="#202124"/>
<defs>
<filter id="filter0_d_1_53" x="-185" y="-39" width="1671.5" height="2259.75" filterUnits="userSpaceOnUse" color-interpolation-filters="sRGB">
<feFlood flood-opacity="0" result="BackgroundImageFix"/>
<feColorMatrix in="SourceAlpha" type="matrix" values="0 0 0 0 0 0 0 0 0 0 0 0 0 0 0 0 0 0 127 0" result="hardAlpha"/>
<feOffset dx="65" dy="65"/>
<feGaussianBlur stdDeviation="125"/>
<feComposite in2="hardAlpha" operator="out"/>
<feColorMatrix type="matrix" values="0 0 0 0 0 0 0 0 0 0 0 0 0 0 0 0 0 0 0.6 0"/>
<feBlend mode="normal" in2="BackgroundImageFix" result="effect1_dropShadow_1_53"/>
<feBlend mode="normal" in="SourceGraphic" in2="effect1_dropShadow_1_53" result="shape"/>
</filter>
<linearGradient id="paint0_linear_1_53" x1="482.5" y1="925" x2="855" y2="1955" gradientUnits="userSpaceOnUse">
<stop stop-color="#34A853"/>
<stop offset="1" stop-color="#22823C"/>
</linearGradient>
<linearGradient id="paint1_linear_1_53" x1="482.5" y1="925" x2="855" y2="1955" gradientUnits="userSpaceOnUse">
<stop stop-color="#34A853"/>
<stop offset="1" stop-color="#22823C"/>
</linearGradient>
</defs>
</svg>
